# xmcd
#
# Track frame offsets:
#	187
#	12732
#	28200
#	44817
#	64355
#	84947
#	98407
#	116015
#	133850
#	150405
#
# Disc length: 2269 seconds
#
# Revision: 4
# Processed by: cddbd v1.5.1PL2 Copyright (c) Steve Scherf et al.
# Submitted via: MusicManager 7.3.0.0 
#
DISCID=8508db0a
DTITLE=Trisha Yearwood - Hearts In Armor
DYEAR=1992
DGENRE=Country
TTITLE0=Wrong Side Of Memphis
TTITLE1=Nearest Distant Shore
TTITLE2=You Say You Will
TTITLE3=Walkaway Joe
TTITLE4=Woman Walk The Line
TTITLE5=Oh Lonesome You
TTITLE6=Down On My Knees
TTITLE7=For Reasons I've Forgotten
TTITLE8=You Don't Have To Move That Mountain
TTITLE9=Hearts In Armor
EXTD=
EXTT0=
EXTT1=
EXTT2=
EXTT3=
EXTT4=
EXTT5=
EXTT6=
EXTT7=
EXTT8=
EXTT9=
PLAYORDER=
